<svg viewBox="0 0 646.78 158.39">
  <g data-name="Layer 2">
    <g data-name="Layer 1">
      <path fill="#fff" d="M21.3 158.39c-5.57 0-9.31-4.13-9.31-10.78a15.25 15.25 0 011.47-6.72c1.95-1.95 5-4.93 8.8-4.93a8 8 0 017 3.39l-2.59 2.47a6.47 6.47 0 00-5.63-3 7.14 7.14 0 00-4.29 1.41 16.39 16.39 0 00-1.18 6.27c0 6 2.82 8.86 7 8.86a11.73 11.73 0 006.47-2.3l.57.93-3.48 3.13a9.2 9.2 0 01-4.83 1.27zM54.42 146.65a15.66 15.66 0 01-1.51 6.81c-1.95 2-5 4.93-8.67 4.93-5.47 0-9-4.09-9-10.68a16 16 0 011.5-6.85c2-2 5-4.9 8.64-4.9 5.49.04 9.04 4.1 9.04 10.69zM49.68 154a16.7 16.7 0 001.19-6.27c0-5.92-2.53-9-6.6-9a7.43 7.43 0 00-4.27 1.52 16.51 16.51 0 00-1.19 6.3c0 5.89 2.5 8.93 6.56 8.93a7.65 7.65 0 004.31-1.48zM72.79 153.27H64l-1.5 4.64h-3.34l7.74-21.47h3.65l7.58 21.47h-3.9zm-4.26-13.76l-3.65 11.17H72zM92.37 158.39c-5.57 0-9.31-4.13-9.31-10.78a15.39 15.39 0 011.47-6.72c2-1.95 5-4.93 8.8-4.93a8.07 8.07 0 017 3.39l-2.6 2.47a6.47 6.47 0 00-5.63-3 7.08 7.08 0 00-4.28 1.41 16.23 16.23 0 00-1.19 6.27c0 6 2.82 8.86 7 8.86a11.72 11.72 0 006.46-2.3l.58.93-3.49 3.13a9.17 9.17 0 01-4.81 1.27zM120.37 149.11h-9.92v8.8h-3.36v-21.47h3.36v9.73h9.92v-9.73h3.39v21.47h-3.39zM131.83 157.91v-21.47h3.39v21.47zM145.78 140.92l.32 17h-2.91v-21.48h3.52l10.62 17.31-.33-17.31h3v21.47h-3.61zM176.79 158.39c-5.54 0-9.41-4.13-9.41-10.78a15.25 15.25 0 011.47-6.72c2-1.95 5.09-4.93 9-4.93a8.16 8.16 0 016.94 3.17l-2.56 2.46a7.06 7.06 0 00-5.72-2.75 7.26 7.26 0 00-4.36 1.41 16.54 16.54 0 00-1.18 6.3c0 6 2.88 8.9 6.85 8.9a6.92 6.92 0 004.13-1.41v-5.15h-5.64l.8-2.66h8v7.46c-2.11 2.14-4.84 4.7-8.32 4.7zM210.58 158.39c-5.57 0-9.31-4.13-9.31-10.78a15.25 15.25 0 011.47-6.72c1.95-1.95 5-4.93 8.8-4.93a8 8 0 017 3.39l-2.59 2.47a6.47 6.47 0 00-5.63-3 7.14 7.14 0 00-4.29 1.41 16.39 16.39 0 00-1.18 6.27c0 6 2.81 8.86 7 8.86a11.73 11.73 0 006.47-2.3l.57.93-3.48 3.13a9.2 9.2 0 01-4.83 1.27zM239.38 157.91H225.3v-21.47l14.33-.29-.86 3-10.11-.25v6.68h8.86l-.86 2.95-8-.35v7l11.58-.22zM254.61 149.62h-4.45v8.29h-3.36v-21.47a55.08 55.08 0 016.56-.48c5.6 0 8.26 2 8.26 6.21a8.13 8.13 0 01-1.19 4.22 16.14 16.14 0 01-3.2 1.67l6.31 9.85h-3.94zm-4.45-10.84v8.45h5.35a5 5 0 002.56-4.64c0-2.82-1.28-4.07-4.74-4.07a15.61 15.61 0 00-3.17.26zM274.07 157.91v-18.84l-7 .16.89-2.95 6.37.16h3.17l7.32-.16-.92 2.95-6.47-.16v18.84zM291 157.91v-21.47h3.39v21.47zM305.78 148.86v9h-3.36v-21.42l14.4-.29-.9 3-10.14-.28v7.32H315l-.86 3zM322.77 157.91v-21.47h3.39v21.47zM342.74 158.39c-5.57 0-9.31-4.13-9.31-10.78a15.25 15.25 0 011.47-6.72c2-1.95 5-4.93 8.8-4.93a8 8 0 017 3.39l-2.59 2.47a6.48 6.48 0 00-5.63-3 7.14 7.14 0 00-4.29 1.41 16.39 16.39 0 00-1.18 6.27c0 6 2.81 8.86 7 8.86a11.78 11.78 0 006.47-2.3l.57.93-3.49 3.13a9.13 9.13 0 01-4.82 1.27zM369.74 153.27H361l-1.51 4.64h-3.36l7.75-21.47h3.64l7.59 21.47h-3.91zm-4.25-13.76l-3.65 11.17h7.1zM384.56 157.91v-18.84l-7 .16.9-2.95 6.36.16H388l7.33-.16-.93 2.95-6.46-.16v18.84zM401.46 157.91v-21.47h3.39v21.47zM431.31 146.65a15.8 15.8 0 01-1.5 6.81c-1.95 2-5 4.93-8.67 4.93-5.48 0-9-4.09-9-10.68a15.84 15.84 0 011.51-6.85c2-2 5-4.9 8.64-4.9 5.47.04 9.02 4.1 9.02 10.69zm-4.73 7.35a16.88 16.88 0 001.18-6.27c0-5.92-2.53-9-6.59-9a7.46 7.46 0 00-4.32 1.44 16.51 16.51 0 00-1.19 6.3c0 5.89 2.5 8.93 6.56 8.93a7.66 7.66 0 004.36-1.4zM441.33 140.92l.32 17h-2.91v-21.48h3.52l10.62 17.31-.29-17.31h2.91v21.47h-3.61zM476.62 151v6.91h-3.36v-21.44A50.26 50.26 0 01480 136c6 0 8.83 2 8.83 7a10.29 10.29 0 01-1 4.58c-2.08 2-4.83 3.74-7.81 3.74a22 22 0 01-3.4-.32zm7.59-2.85a10.57 10.57 0 001.05-4.7c0-3.55-1.56-5-5.4-5a16.45 16.45 0 00-3.24.26v9.53a20.83 20.83 0 004.1.42 10.87 10.87 0 003.49-.51zM503.66 149.62h-4.44v8.29h-3.36v-21.47a54.76 54.76 0 016.56-.48c5.6 0 8.25 2 8.25 6.21a8.13 8.13 0 01-1.18 4.22 16.42 16.42 0 01-3.2 1.67l6.3 9.85h-3.94zm-4.44-10.84v8.45h5.34a5 5 0 002.56-4.64c0-2.82-1.28-4.07-4.74-4.07a15.52 15.52 0 00-3.16.26zM536.65 146.65a15.66 15.66 0 01-1.5 6.81c-1.95 2-5 4.93-8.67 4.93-5.47 0-9-4.09-9-10.68a15.84 15.84 0 011.5-6.85c2-2 5-4.9 8.64-4.9 5.48.04 9.03 4.1 9.03 10.69zm-4.73 7.35a16.88 16.88 0 001.18-6.27c0-5.92-2.53-9-6.59-9a7.48 7.48 0 00-4.32 1.44 16.68 16.68 0 00-1.18 6.3c0 5.89 2.49 8.93 6.56 8.93a7.65 7.65 0 004.35-1.4zM552.78 158.39c-5.53 0-9.41-4.13-9.41-10.78a15.25 15.25 0 011.48-6.72c1.95-1.95 5.08-4.93 9-4.93a8.17 8.17 0 016.94 3.17l-2.56 2.46a7.08 7.08 0 00-5.73-2.75 7.25 7.25 0 00-4.35 1.41 16.35 16.35 0 00-1.18 6.3c0 6 2.88 8.9 6.84 8.9a6.89 6.89 0 004.09-1.45v-5.15h-5.63l.8-2.66h8v7.46c-2.07 2.18-4.8 4.74-8.29 4.74zM576.33 149.62h-4.44v8.29h-3.36v-21.47a54.76 54.76 0 016.56-.48c5.6 0 8.25 2 8.25 6.21a8.13 8.13 0 01-1.18 4.22 16.42 16.42 0 01-3.2 1.67l6.3 9.85h-3.93zm-4.44-10.84v8.45h5.34a5 5 0 002.56-4.64c0-2.82-1.28-4.07-4.74-4.07a15.52 15.52 0 00-3.16.26zM603.21 153.27h-8.76l-1.51 4.64h-3.36l7.75-21.47H601l7.59 21.47h-3.91zM599 139.51l-3.65 11.17h7.1zM632.49 140.09l-5.4 18h-3.17l-5.25-18-1.44 17.82h-3l2.24-21.47h4.35l5 17.73 5-17.73h4l2.37 21.47h-3.27zM107 90.15H94v-.23c4.39-4 5.09-6.25 7.87-13.77L128 4.4h3.12l26.5 72.79c3 8.56 3.82 10 7.53 12.73v.23H150.7v-.23c1.51-2 2.66-5.91.23-13l-6.71-18.75h-32.86l-6.6 18.51C102.1 84 104.3 87.6 107 89.92zm20.94-78l-15.66 43.74h31.13zM214.23 80.2c-3.36 6-9.72 11.68-20.6 11.68-14 0-23.26-10.53-23.26-27.19 0-16.43 12-31.25 30.32-31.25a28 28 0 0113.42 3.13v-24.3c0-3.71-2.43-5.79-5.09-7.18v-.23L219.9 0v77.77c0 7.29 1.27 8.44 5.09 10.06v.23l-10.3 3.48V80.2zm-.12-2.32V51.73c0-12.85-8-16.2-15-16.2-12.73 0-22 11.34-22 27.08S185.41 88 197 88c7.39 0 13.41-4.22 17.11-10.12zM270.47 81.58c-4.28 5.44-10.42 10.3-19.33 10.3-10.07 0-15.39-6.13-15.39-16.2V42.82c0-3.59-2-5.9-4.86-7.41v-.23h10.65v38.65c0 8.91 3.7 13.54 12 13.54a22.36 22.36 0 0016.32-7.29V42.82c0-3.36-1.74-5.9-5.09-7.41v-.23h10.88V77.3c0 7.41 1.5 8.8 5.2 10.3v.23l-10.41 3.71zM290.37 89.92c2.2-4 2.55-7.53 2.55-13.54V12.27c0-3.71-2.44-5.79-5.1-7.18v-.23L298.7 0v76.26c0 6 .12 9.61 2.55 13.66v.23h-10.88zM315.6 79.15V37.26h-6.25V37l11.8-10.3h.23v8.45h17.13v2.08h-17.13v42.16c0 5.9 2.55 8.91 8.45 8.91a22.3 22.3 0 009.72-2.43l.23.46a18.05 18.05 0 01-12.61 5.55c-5.44 0-11.57-2.77-11.57-12.73zM437.79 82.86c-4.28 3.35-16.89 9-31.24 9-26.39 0-41.89-19.55-41.89-44.2s17.12-44 44.9-44a73.87 73.87 0 0127.77 5.79l2.31 16.32-.92.23C431 11.8 422.06 6 409.09 6c-25 0-36.8 17.93-36.8 41.66S383.4 89.57 407 89.57c17.36 0 26-9 32.17-24.65l.93.23zM453.29 90.15v-.23c2.2-4 2.55-7.41 2.55-13.54V13.77c0-4.51-2.43-6.94-5.09-8.68v-.23L461.63 0v43.51c5.9-6.94 13.42-10.07 20.83-10.07 10.76 0 16.2 6.37 16.2 16.9v25.92c0 6.37.11 9.84 2.54 13.66v.23h-10.87v-.23c2.19-4 2.54-7.64 2.54-13.54V51.61c0-7.75-3.24-13.65-13-13.65a25.39 25.39 0 00-18.28 7.63v30.79c0 6 .11 9.49 2.54 13.54v.23zM543.21 83.67c-4.05 4.28-10.76 8.21-18.29 8.21-8.21 0-13.54-4.39-13.54-11.8 0-13.54 18.64-19.44 31.83-20.71V48.72c0-6.13-2.9-11.8-13.08-11.8a29.26 29.26 0 00-16.2 5.08l-.58-.81c4.63-4.63 11.69-7.76 20.14-7.76 12.84 0 15.5 6.72 15.5 14.12v35c0 3.12 1.39 5 4.52 5 2.66 0 4.28-1.51 5.55-2.78l.35.23c-.93 2.43-3.24 6.6-8.8 6.6-4.97-.06-7.29-3.42-7.4-7.93zm0-2V61.22c-12.5 1.5-25.92 6.59-25.92 17.24 0 5.44 3.12 9.26 10.41 9.26a22.87 22.87 0 0015.51-6.02zM564.5 89.92c2.2-4 2.54-7.53 2.54-13.54v-28.7c0-4.28-2.43-6.83-5.09-8.57v-.23l10.88-6v43.38c0 6.13.12 9.61 2.55 13.66v.23H564.5zm5.09-71.29a4.75 4.75 0 114.74-4.74 4.69 4.69 0 01-4.74 4.74zM587.29 89.92c2.2-4 2.55-7.41 2.55-13.54V47.79c0-4.51-2.43-6.94-5.09-8.68v-.23l10.41-6v14l.58.11c5.56-5.55 10.42-13.54 18.75-13.54v9.25h-.23c-1.74-1-5.67-1.73-8.45-1.73-1.85 0-6.48 4.39-10.18 8.68v26.61c0 6.13.11 9.61 2.54 13.66v.23h-10.88zM13.54 54.44H8.09v-.07a7.5 7.5 0 001.34-5v-19L5 30.52c-1.24 0-3.27 3.43-4.68 5.66L0 36.07l1.28-6.3h19l1.31 6.3-.27.11c-1.52-2.23-3.44-5.66-4.72-5.66l-4.44-.14v19a7.5 7.5 0 001.34 5zM27.19 54.37a7.69 7.69 0 001.34-5V34.83a7.93 7.93 0 00-1.34-5v-.07h5.45v.07a7.5 7.5 0 00-1.34 5v6.53h13v-6.53a7.69 7.69 0 00-1.35-5v-.07h5.46v.07a7.45 7.45 0 00-1.35 5v14.55a7.45 7.45 0 001.35 5v.07H43v-.07a7.5 7.5 0 001.35-5V42h-13v7.34a7.5 7.5 0 001.34 5v.07h-5.5zM71.79 54.44H55.25v-.07a9.18 9.18 0 001.31-4.65V34.49a9 9 0 00-1.31-4.65v-.07h14.86l1.31 5.39-.27.11c-1.72-2-3.44-4.62-4.72-4.72l-7.07-.24V41.7h4.24c1.25 0 2.33-2 3.24-3.2h.27v6.87h-.27c-.91-1-2-3-3.24-3h-4.24V53.9l7.34-.24c2.46-.1 4.38-2.63 6.3-5.36l.27.11zM.35 65.09h72.78v1.53H.35zM636.11 16.12a10.51 10.51 0 0110.67 10.56A10.67 10.67 0 01636 37.2a10.48 10.48 0 01-10.72-10.52 10.69 10.69 0 0110.83-10.56zM636 36.17a9.52 9.52 0 10-9.55-9.49 9.38 9.38 0 009.55 9.49zm-4.06-4a3 3 0 00.62-2.25V23.3A3.07 3.07 0 00632 21v-.1h4.57c2.62 0 3.74 1.18 3.74 2.87a2.8 2.8 0 01-2.3 2.87l1.94 3.59c.67 1.18.93 1.54 1.75 1.9v.11h-2.77l-2.77-5.19h-1.64v2.83a3 3 0 00.61 2.25v.11H632zm2.52-10.41v4.46h1.69c1.64 0 2.15-1.13 2.15-2.36s-.41-2.1-2.2-2.1z"/>
    </g>
  </g>
</svg>