<?xml version="1.0" encoding="UTF-8"?><svg version="1.1" width="74px" height="61px" viewBox="0 0 74.0 61.0" xmlns="http://www.w3.org/2000/svg" xmlns:xlink="http://www.w3.org/1999/xlink"><defs><clipPath id="i0"><path d="M1440,0 L1440,10736 L0,10736 L0,0 L1440,0 Z"></path></clipPath><clipPath id="i1"><path d="M17.9845767,0.000703820283 C18.088452,-0.00403084596 18.196477,0.014907819 18.3098478,0.0640301707 L35.3696372,7.44541273 C35.7524834,7.57266541 36,7.92539425 36,8.32428799 L36,13.3027327 C36,20.8291097 33.7532195,26.7410034 30.2672604,31.0323534 C26.7800857,35.3237033 22.7265813,38.4367653 17.9994682,41 C13.2817762,38.4367653 9.22356119,35.3177945 5.73273959,31.0323534 C2.25027542,26.751609 0,20.8344125 0,13.3027327 L0,8.32428799 C0,7.93012134 0.255828462,7.57265632 0.630362788,7.44541273 L17.6886326,0.0640301707 C17.777662,0.024969553 17.8815388,0.000703820283 17.9848199,0.000703820283 Z M25.495078,12.5901586 C25.0516785,12.5558266 24.5685128,12.7274564 24.2533314,13.0393535 L15.7392398,21.5132697 L11.6181162,17.4125185 C11.1255294,16.9177497 10.3271823,16.9177497 9.83570479,17.4125185 L7.90012452,19.3619889 C7.40746175,19.8579244 7.40746175,20.6574996 7.90012452,21.1540411 L14.828888,28.0483212 C15.3250609,28.5395448 16.1287567,28.5395448 16.6249752,28.0483212 L19.023557,25.6856849 L28.0992677,16.5287646 C28.597264,16.0375714 28.597264,15.2474806 28.0992677,14.7562571 L26.1986366,12.8908743 C26.0116582,12.7079935 25.7611785,12.6097503 25.4952603,12.5902192 Z"></path></clipPath><clipPath id="i2"><path d="M8.4378169,0.171550697 C10.9425069,2.73498873 12.1247538,5.65356018 11.9896017,8.32366715 C11.8510983,10.9704101 10.3981897,13.2998854 8.140512,14.369314 C5.88105404,15.439951 3.88047685,15.090006 2.41843101,13.753744 C0.942410058,12.4004988 -0.0103008489,10.1081481 0,7.20971805 C0,6.61994522 0.408062345,6.54630821 0.711153126,6.66652829 C2.72152179,7.48792737 4.38533144,8.19664733 5.77557311,9.60217965 C5.17345649,6.2693396 6.64542733,2.87994246 7.59693656,0.369194364 C7.76036524,-0.075173567 8.17877294,-0.0890308598 8.4378169,0.171550697 Z"></path></clipPath><clipPath id="i3"><path d="M12.6298614,0.450136762 C13.4322448,4.03822428 12.8941452,7.12642267 11.3633133,9.22835773 C9.84390449,11.3153855 7.35816105,12.3536659 4.84185356,11.8915383 C2.32493109,11.4225914 0.785658735,9.94882635 0.237412109,7.98502207 C-0.315708162,6.0013942 0.0776580236,3.5594449 1.62830734,1.19726573 C1.94180417,0.712824725 2.33457076,0.893092537 2.53034677,1.17682205 C3.81974104,3.04277708 4.88091959,4.60376598 5.33492191,6.58311195 C6.57928493,3.50046416 9.64448477,1.60310857 11.7968832,0.111898713 C12.1812401,-0.149518954 12.5445803,0.0815432438 12.6298614,0.450136762 Z"></path></clipPath><clipPath id="i4"><path d="M5.17493402,0.47844684 C5.5851667,2.64845316 5.90097782,4.45704593 5.47073379,6.36979289 C7.97711535,4.21884846 11.6817765,3.8732944 14.3520911,3.49266645 C14.8229821,3.42416256 15.0662401,3.78574692 14.9843216,4.14077094 C14.1900151,7.59434439 12.3483146,10.055769 9.998822,11.2269319 C7.66998115,12.393276 4.87399534,12.2395914 2.71036819,10.7676622 C0.546580949,9.29036521 -0.263798676,7.35741263 0.0738328189,5.42087642 C0.4052688,3.46344837 1.83803343,1.5066303 4.31944081,0.107334585 C4.82222198,-0.173226035 5.11238655,0.147840353 5.17493402,0.47844684 Z"></path></clipPath><clipPath id="i5"><path d="M3.49901367,0 C5.43189611,0 7,1.56346637 7,3.49581192 C7,5.42938927 5.43317834,7 3.49901367,7 C1.564849,7 0,5.42947139 0,3.49581192 C0,1.56338425 1.56618055,0 3.49901367,0 Z"></path></clipPath><clipPath id="i6"><path d="M0.94782113,0.0714637133 C6.12658894,1.30723624 8.2102814,6.71916766 6.30449484,11.3533578 C5.98855954,12.1068368 5.60300028,12.0839041 5.0002831,11.872088 C0.405771689,10.2262218 0,6.74543314 0,1.15007509 C0,0.00333925344 0.168980147,-0.114708607 0.94782113,0.0714637133 Z"></path></clipPath><clipPath id="i7"><path d="M9.9102728,0.250872238 C11.8383876,3.08058946 12.4009522,5.94754183 11.7271502,8.29894121 C11.0637749,10.6324968 9.17447452,12.3999174 6.75216902,12.864151 C4.32986352,13.3272934 2.45098977,12.5767037 1.29634562,11.0622226 C0.133573719,9.53797901 -0.338102496,7.27697836 0.259286806,4.6922824 C0.382690605,4.16577245 0.791713471,4.1905473 1.06691478,4.36739259 C2.85546377,5.53850599 4.3356627,6.52752418 5.41155077,8.089225 C5.49382047,4.98322476 7.61256802,2.27804631 9.05049673,0.242231417 C9.30482991,-0.117225215 9.71270036,-0.0446407829 9.9102728,0.250872238 Z"></path></clipPath><clipPath id="i8"><path d="M7.4161612,0.000953121305 C8.00161195,-0.0221671303 8.10021233,0.380125247 7.99100254,0.687043813 C7.29134089,2.72458534 6.68155562,4.41750565 5.36517423,5.86479641 C8.62692786,5.10702924 12.0660375,6.42199077 14.6092595,7.24564881 C15.0592645,7.39592675 15.0948476,7.80689754 14.8470604,8.08144036 C12.4492704,10.6948648 9.620681,12.008687 6.9705661,12 C4.34601604,11.9843504 1.95873961,10.6462716 0.774128987,8.44572674 C-0.411743905,6.24408691 -0.173319845,4.23554742 1.06809265,2.71530765 C2.32573883,1.18530188 4.54762673,0.125247594 7.4161612,0.000953121305 Z"></path></clipPath><clipPath id="i9"><path d="M3.55991061,0.171550697 C3.81903936,-0.0890308598 4.23816278,-0.075173567 4.4056964,0.369194364 C5.35411859,2.87994246 6.83062264,6.2693396 6.22483629,9.60217965 C7.61894628,8.19664733 9.28211326,7.48792737 11.2879458,6.66652829 C11.590557,6.54630821 11.9998263,6.61994522 11.9998263,7.20971805 C12.0148152,10.1081481 11.0583198,12.4004988 9.5852884,13.753744 C8.12439648,15.090006 6.12316451,15.439951 3.86296703,14.369314 C1.597427,13.2998854 0.145314683,10.9704101 0.0102430266,8.32366715 C-0.123617651,5.65356018 1.05426727,2.73498873 3.55977705,0.171389566 Z"></path></clipPath><clipPath id="i10"><path d="M0.367846636,0.450136762 C0.451351641,0.0815432438 0.821403379,-0.149518954 1.19985175,0.111898713 C3.35345045,1.60310857 6.42308213,3.50046416 7.67018248,6.58311195 C8.11708035,4.60376598 9.17859352,3.04277708 10.4701376,1.17682205 C10.668981,0.893092537 11.0588402,0.712824725 11.3724222,1.19726573 C12.9222936,3.5594449 13.3157667,6.0013942 12.7624961,7.98502207 C12.2141004,9.94882635 10.6791769,11.4225914 8.16157022,11.8915383 C5.64580893,12.3536659 3.1539919,11.3153855 1.63357029,9.22835773 C0.103521769,7.12642267 -0.429310905,4.03822428 0.367846636,0.450154207 Z"></path></clipPath><clipPath id="i11"><path d="M9.82828399,0.47844684 C9.89081861,0.147840353 10.182172,-0.173226035 10.6848498,0.107334585 C13.1651068,1.5066303 14.5912866,3.46344837 14.9276643,5.42087642 C15.2602646,7.35741263 14.456934,9.29036521 12.2886298,10.7676622 C10.1267279,12.2395914 7.33627872,12.393276 5.00167437,11.2269319 C2.6565062,10.055769 0.81460805,7.59434439 0.0161912894,4.14063369 C-0.0677750783,3.78574692 0.182315371,3.42416256 0.65186119,3.49266645 C3.31906583,3.8732944 7.02168494,4.21884846 9.52755122,6.36979289 C9.09801988,4.45704593 9.41875988,2.64845316 9.82828399,0.47844684 Z"></path></clipPath><clipPath id="i12"><path d="M6.05240643,0.0714637133 C6.82690318,-0.114708607 7,0.00333925344 7,1.15007509 C7,6.74543314 6.58960505,10.2262218 1.99500895,11.8721225 C1.39360903,12.0839041 1.00815756,12.1068368 0.698237043,11.3533578 C-1.21242175,6.71916766 0.871379551,1.30723624 6.05240643,0.0714637133 Z"></path></clipPath><clipPath id="i13"><path d="M2.0869306,0.250872238 C2.28799897,-0.0446407829 2.69595088,-0.117225215 2.9526639,0.242231417 C4.38509433,2.27804631 6.50657484,4.98322476 6.59233672,8.089225 C7.66384097,6.52752418 9.14670909,5.53850599 10.9390273,4.36739259 C11.2067328,4.1905473 11.619905,4.16577245 11.7410163,4.6922824 C12.3360623,7.27697836 11.8702258,9.53797901 10.7072216,11.0622226 C9.54997327,12.5767037 7.66849904,13.3272934 5.25030843,12.864151 C2.82811247,12.3999174 0.938464363,10.6324968 0.270328133,8.29894121 C-0.397822931,5.94754183 0.159661904,3.08058946 2.0869751,0.250946857 Z"></path></clipPath><clipPath id="i14"><path d="M7.57913118,0.000953121305 C10.4528261,0.125247594 12.6681816,1.18530188 13.9268849,2.71530765 C15.1706031,4.23554742 15.4139917,6.24408691 14.228297,8.44572674 C13.0432253,10.6462716 10.6507161,11.9843504 8.02528238,12 C5.38051813,12.008687 2.54931836,10.6948648 0.151696981,8.0817215 C-0.0978901642,7.80689754 -0.0548358624,7.39592675 0.395724611,7.24564881 C2.9374461,6.42199077 6.36853048,5.10702924 9.63602449,5.86479641 C8.31488846,4.41750565 7.70955616,2.72458534 7.0056383,0.687043813 C6.90203639,0.380125247 6.99439146,-0.0221671303 7.57913118,0.000953121305 Z"></path></clipPath></defs><g transform="translate(-266.0 -5231.0)"><g clip-path="url(#i0)"><g transform="translate(266.0 5231.0)"><g transform="translate(20.0 7.0)"><g clip-path="url(#i1)"><polygon points="0,-1.38777878e-17 36,-1.38777878e-17 36,41 0,41 0,-1.38777878e-17" stroke="none" fill="#FFFFFF"></polygon></g></g><g transform="translate(59.0 5.0)"><g clip-path="url(#i2)"><polygon points="-8.27046111e-05,6.10622664e-16 12,6.10622664e-16 12,15 -8.27046111e-05,15 -8.27046111e-05,6.10622664e-16" stroke="none" fill="#FFFFFF"></polygon></g></g><g transform="translate(61.0 33.0)"><g clip-path="url(#i3)"><polygon points="2.3869795e-15,2.9559688e-15 13,2.9559688e-15 13,12 2.3869795e-15,12 2.3869795e-15,2.9559688e-15" stroke="none" fill="#FFFFFF"></polygon></g></g><g transform="translate(54.0 43.0)"><g clip-path="url(#i4)"><polygon points="-3.55271368e-15,-3.56659147e-15 15,-3.56659147e-15 15,12 -3.55271368e-15,12 -3.55271368e-15,-3.56659147e-15" stroke="none" fill="#FFFFFF"></polygon></g></g><g transform="translate(34.0 54.0)"><g clip-path="url(#i5)"><polygon points="0,0 7,0 7,7 0,7 0,0" stroke="none" fill="#FFFFFF"></polygon></g></g><g transform="translate(58.0 0.0)"><g clip-path="url(#i6)"><polygon points="0,-2.22044605e-16 7,-2.22044605e-16 7,12 0,12 0,-2.22044605e-16" stroke="none" fill="#FFFFFF"></polygon></g></g><g transform="translate(62.0 18.0)"><g clip-path="url(#i7)"><polygon points="-2.88657986e-15,1.66533454e-16 12,1.66533454e-16 12,13 -2.88657986e-15,13 -2.88657986e-15,1.66533454e-16" stroke="none" fill="#FFFFFF"></polygon></g></g><g transform="translate(43.0 49.0)"><g clip-path="url(#i8)"><polygon points="-8.8817842e-16,-1.92543464e-15 15,-1.92543464e-15 15,12.0000428 -8.8817842e-16,12.0000428 -8.8817842e-16,-1.92543464e-15" stroke="none" fill="#FFFFFF"></polygon></g></g><g transform="translate(3.0 5.0)"><g clip-path="url(#i9)"><polygon points="4.4408921e-16,6.10622664e-16 12,6.10622664e-16 12,15 4.4408921e-16,15 4.4408921e-16,6.10622664e-16" stroke="none" fill="#FFFFFF"></polygon></g></g><g transform="translate(0.0 33.0)"><g clip-path="url(#i10)"><polygon points="-7.77156117e-16,2.9559688e-15 13,2.9559688e-15 13,12 -7.77156117e-16,12 -7.77156117e-16,2.9559688e-15" stroke="none" fill="#FFFFFF"></polygon></g></g><g transform="translate(5.0 43.0)"><g clip-path="url(#i11)"><polygon points="-1.77635684e-15,-3.56659147e-15 15,-3.56659147e-15 15,12 -1.77635684e-15,12 -1.77635684e-15,-3.56659147e-15" stroke="none" fill="#FFFFFF"></polygon></g></g><g transform="translate(11.0 0.0)"><g clip-path="url(#i12)"><polygon points="1.77635684e-15,-2.22044605e-16 7,-2.22044605e-16 7,12 1.77635684e-15,12 1.77635684e-15,-2.22044605e-16" stroke="none" fill="#FFFFFF"></polygon></g></g><g transform="translate(0.0 18.0)"><g clip-path="url(#i13)"><polygon points="8.8817842e-16,1.66533454e-16 12,1.66533454e-16 12,13 8.8817842e-16,13 8.8817842e-16,1.66533454e-16" stroke="none" fill="#FFFFFF"></polygon></g></g><g transform="translate(16.0 49.0)"><g clip-path="url(#i14)"><polygon points="-2.1649349e-15,-1.92543464e-15 15,-1.92543464e-15 15,12.0000428 -2.1649349e-15,12.0000428 -2.1649349e-15,-1.92543464e-15" stroke="none" fill="#FFFFFF"></polygon></g></g></g></g></g></svg>